<svg width="20" height="21" viewBox="0 0 20 21" fill="none" xmlns="http://www.w3.org/2000/svg">
<g id="Icon">
<path id="instagram" d="M10.0167 6.38708C7.87388 6.38708 6.16629 8.10791 6.16629 10.1928C6.16629 12.3107 7.87388 13.9984 10.0167 13.9984C12.1261 13.9984 13.8672 12.3107 13.8672 10.1928C13.8672 8.10791 12.1261 6.38708 10.0167 6.38708ZM10.0167 12.6747C8.64397 12.6747 7.50558 11.5827 7.50558 10.1928C7.50558 8.83595 8.61049 7.74389 10.0167 7.74389C11.3895 7.74389 12.4944 8.83595 12.4944 10.1928C12.4944 11.5827 11.3895 12.6747 10.0167 12.6747ZM14.9051 6.25471C14.9051 5.75832 14.5033 5.3612 14.0011 5.3612C13.4989 5.3612 13.0971 5.75832 13.0971 6.25471C13.0971 6.7511 13.4989 7.14821 14.0011 7.14821C14.5033 7.14821 14.9051 6.7511 14.9051 6.25471ZM17.4498 7.14821C17.3828 5.95687 17.115 4.8979 16.2444 4.03749C15.3739 3.17708 14.3025 2.91233 13.0971 2.84615C11.8583 2.77996 8.14174 2.77996 6.9029 2.84615C5.69754 2.91233 4.6596 3.17708 3.75558 4.03749C2.88504 4.8979 2.61719 5.95687 2.55022 7.14821C2.48326 8.37265 2.48326 12.046 2.55022 13.2704C2.61719 14.4617 2.88504 15.4876 3.75558 16.3811C4.6596 17.2415 5.69754 17.5063 6.9029 17.5725C8.14174 17.6386 11.8583 17.6386 13.0971 17.5725C14.3025 17.5063 15.3739 17.2415 16.2444 16.3811C17.115 15.4876 17.3828 14.4617 17.4498 13.2704C17.5167 12.046 17.5167 8.37265 17.4498 7.14821ZM15.8426 14.561C15.6083 15.2229 15.0725 15.7193 14.4364 15.984C13.4319 16.3811 11.0882 16.2818 10.0167 16.2818C8.91183 16.2818 6.56808 16.3811 5.5971 15.984C4.92746 15.7193 4.42522 15.2229 4.15737 14.561C3.75558 13.6013 3.85603 11.2848 3.85603 10.1928C3.85603 9.13378 3.75558 6.81729 4.15737 5.8245C4.42522 5.19574 4.92746 4.69935 5.5971 4.4346C6.56808 4.03749 8.91183 4.13677 10.0167 4.13677C11.0882 4.13677 13.4319 4.03749 14.4364 4.4346C15.0725 4.66625 15.5748 5.19574 15.8426 5.8245C16.2444 6.81729 16.144 9.13378 16.144 10.1928C16.144 11.2848 16.2444 13.6013 15.8426 14.561Z" fill="white" fill-opacity="0.5"/>
</g>
</svg>
