<svg width="162" height="31" viewBox="0 0 162 31" fill="none" xmlns="http://www.w3.org/2000/svg">
<path d="M1.07878 19.1854V10.7854H4.03078C4.62278 10.7854 5.11078 10.8814 5.49478 11.0734C5.88678 11.2574 6.17878 11.5134 6.37078 11.8414C6.56278 12.1614 6.65878 12.5214 6.65878 12.9214C6.65878 13.4654 6.51078 13.8934 6.21478 14.2054C5.92678 14.5174 5.57878 14.7334 5.17078 14.8534C5.48278 14.9094 5.76678 15.0334 6.02278 15.2254C6.27878 15.4174 6.47878 15.6574 6.62278 15.9454C6.77478 16.2334 6.85078 16.5494 6.85078 16.8934C6.85078 17.3174 6.74678 17.7054 6.53878 18.0574C6.33078 18.4014 6.02278 18.6774 5.61478 18.8854C5.20678 19.0854 4.71078 19.1854 4.12678 19.1854H1.07878ZM2.08678 14.4574H3.95878C4.49478 14.4574 4.90678 14.3334 5.19478 14.0854C5.48278 13.8294 5.62678 13.4774 5.62678 13.0294C5.62678 12.6054 5.48278 12.2654 5.19478 12.0094C4.91478 11.7534 4.49078 11.6254 3.92278 11.6254H2.08678V14.4574ZM2.08678 18.3454H4.01878C4.59478 18.3454 5.03878 18.2134 5.35078 17.9494C5.66278 17.6774 5.81878 17.3014 5.81878 16.8214C5.81878 16.3494 5.65478 15.9734 5.32678 15.6934C4.99878 15.4054 4.55478 15.2614 3.99478 15.2614H2.08678V18.3454ZM8.96953 11.9134C8.76953 11.9134 8.60153 11.8494 8.46553 11.7214C8.33753 11.5854 8.27353 11.4174 8.27353 11.2174C8.27353 11.0254 8.33753 10.8654 8.46553 10.7374C8.60153 10.6094 8.76953 10.5454 8.96953 10.5454C9.16153 10.5454 9.32553 10.6094 9.46153 10.7374C9.59753 10.8654 9.66553 11.0254 9.66553 11.2174C9.66553 11.4174 9.59753 11.5854 9.46153 11.7214C9.32553 11.8494 9.16153 11.9134 8.96953 11.9134ZM8.46553 19.1854V13.2334H9.47353V19.1854H8.46553ZM11.3486 19.1854V13.2334H12.2606L12.3446 14.3734C12.5286 13.9814 12.8086 13.6694 13.1846 13.4374C13.5606 13.2054 14.0246 13.0894 14.5766 13.0894V14.1454H14.3006C13.9486 14.1454 13.6246 14.2094 13.3286 14.3374C13.0326 14.4574 12.7966 14.6654 12.6206 14.9614C12.4446 15.2574 12.3566 15.6654 12.3566 16.1854V19.1854H11.3486Z" fill="white"/>
<g clip-path="url(#clip0_2423_757)">
<path d="M58.4174 2.17041H44.1475V5.58613H49.4628V20.3067H53.13V5.58613H58.4174V2.17041Z" fill="white"/>
<path d="M68.2707 8.50439C67.1813 7.32232 65.6666 6.58545 63.8586 6.58545C60.0843 6.58545 57.2412 9.60817 57.2412 13.6042C57.2412 17.6002 60.0843 20.6229 63.8586 20.6229C65.665 20.6229 67.1797 19.886 68.2707 18.704V20.3067H71.7253V6.90169H68.2707V8.50439ZM64.5244 17.31C62.3982 17.31 60.8044 15.7073 60.8044 13.6026C60.8044 11.4979 62.3982 9.89678 64.5244 9.89678C66.6505 9.89678 68.2722 11.4995 68.2722 13.6026C68.2722 15.7058 66.6784 17.31 64.5244 17.31Z" fill="white"/>
<path d="M91.4595 6.90173H88.0049V20.3067H91.4595V6.90173Z" fill="white"/>
<path d="M101.713 6.58545C99.959 6.58545 98.4708 7.2164 97.4077 8.39847V6.90016H93.9531V20.3051H97.4077V12.9456C97.4077 11.1065 98.6834 9.89678 100.571 9.89678C102.458 9.89678 103.547 11.0788 103.547 12.8934V20.3067H107.002V11.7896C107.002 8.63488 104.902 6.58545 101.713 6.58545Z" fill="white"/>
<path d="M32.8264 13.4523L35.1775 15.7642C33.8956 17.1643 32.0923 17.9457 30.1679 17.9457C29.5797 17.9457 29.0195 17.8658 28.4717 17.7476L32.8264 13.4538V13.4523Z" fill="white"/>
<path d="M41.3618 11.2585C41.3618 17.3362 36.3522 22.2917 30.1803 22.2917C25.5726 22.2917 21.6307 19.5698 19.9221 15.6322L21.5656 14.0064L23.4356 12.1289H23.4496C23.4092 11.825 23.3968 11.5471 23.3968 11.2309C23.3968 10.3727 23.5706 9.51303 23.8903 8.74545C24.8929 6.27538 27.3232 4.52991 30.1694 4.52991C33.9095 4.52991 36.942 7.52961 36.942 11.2293C36.942 12.1274 36.7682 13.0132 36.4221 13.8191L32.8294 10.2653L26.2834 16.7267C25.883 16.4627 25.495 16.1326 25.1613 15.7626L31.7198 9.27508L28.0727 5.66746L26.4696 7.25328L28.5135 9.27508L22.208 15.5247L22.6628 16.2385C22.7574 16.3445 22.8226 16.4627 22.9033 16.5686C23.0104 16.7267 23.1439 16.8726 23.2773 17.0307C23.358 17.1627 23.4775 17.2548 23.5846 17.3607C23.732 17.5327 23.8919 17.6908 24.0657 17.8366C24.1185 17.8888 24.1728 17.9426 24.2255 17.9687C24.4397 18.1667 24.6539 18.3524 24.8929 18.4968C25.2265 18.7608 25.5742 18.9588 25.9482 19.1569C26.1748 19.2628 26.4153 19.3948 26.6558 19.4869C26.9088 19.5929 27.1757 19.6972 27.4582 19.7909C27.6848 19.8431 27.8989 19.8968 28.1255 19.949C28.259 20.0012 28.3924 20.0012 28.5119 20.0273C28.6997 20.0795 28.8735 20.0933 29.0598 20.1209C29.1793 20.1332 29.3127 20.147 29.4198 20.147C29.6604 20.1731 29.9149 20.1731 30.1415 20.1731H30.1678C30.4348 20.1731 30.7017 20.1731 30.9702 20.147C31.0773 20.147 31.1968 20.1332 31.3038 20.1209C31.5304 20.081 31.7446 20.0549 31.9712 20.0027C32.3188 19.9229 32.6525 19.8446 32.9861 19.7249C33.2267 19.6727 33.4672 19.5668 33.6814 19.4869C33.9483 19.3933 34.2168 19.2628 34.4698 19.1308C34.7507 18.9588 35.0176 18.8007 35.2845 18.6027C35.3916 18.5505 35.4847 18.4968 35.5778 18.4046C35.778 18.2726 35.9518 18.1145 36.1396 17.9426C36.2064 17.8904 36.2871 17.8366 36.3662 17.7445C36.5788 17.5603 36.793 17.3346 36.9808 17.1105L37.0615 17.0322C37.2617 16.7943 37.4758 16.5425 37.676 16.2385C38.0097 15.7365 38.303 15.2207 38.5311 14.6665C38.6258 14.4409 38.7049 14.2306 38.7717 14.0064C38.9315 13.5167 39.0665 12.9886 39.1317 12.4605C39.1581 12.3024 39.1721 12.1044 39.1845 11.9186C39.1969 11.6945 39.2109 11.4688 39.2109 11.2309C39.2109 8.77308 38.2083 6.53943 36.5664 4.92752C36.152 4.50382 35.7113 4.14766 35.2302 3.8176C34.7491 3.48754 34.2277 3.20968 33.6798 2.97173C33.146 2.7476 32.6773 2.64167 32.4243 2.57566C32.4243 2.57566 30.0732 1.96774 27.6025 2.64167C27.4147 2.69387 27.2285 2.7737 27.2285 2.7737C26.4541 3.05156 25.8535 3.35552 25.4531 3.60575C25.3584 3.65795 25.1722 3.78997 24.9456 3.93581C24.4521 4.29196 23.9974 4.67575 23.583 5.11174C23.3021 5.3896 23.0492 5.71966 22.8226 6.02362C22.7031 6.20784 22.5821 6.35368 22.4889 6.5379C22.3694 6.70983 22.2748 6.86795 22.1817 7.03989C22.101 7.19801 22.0218 7.34385 21.9551 7.50197C21.8884 7.62172 21.834 7.72764 21.7952 7.87195C21.7145 8.03007 21.6618 8.18819 21.6075 8.36166C21.5547 8.49368 21.5143 8.63952 21.488 8.77155C21.4212 8.96958 21.3685 9.1799 21.3281 9.37947C21.2614 9.68343 21.2086 9.98739 21.1807 10.2914C21.1403 10.5953 21.1139 10.9254 21.1139 11.2293V11.2554L19.1771 13.1851C19.1244 12.9073 19.084 12.6309 19.0577 12.3792C19.0173 11.9969 19.0049 11.6392 19.0049 11.257C19.0002 5.14091 23.9959 0.185425 30.1803 0.185425C36.3647 0.185425 41.3618 5.1409 41.3618 11.2585Z" fill="white"/>
<path d="M24.7634 12.1097C24.7634 12.1097 24.7634 12.1057 24.7634 12.1044L24.7578 12.1097H24.7647H24.7634Z" fill="white"/>
<path d="M80.8287 12.0537C79.314 11.7389 78.1718 11.4503 78.1718 10.5553C78.1718 9.76627 79.1278 9.39937 80.2979 9.39937C81.6807 9.39937 82.8229 9.8983 83.8053 10.6352L85.4798 8.34932C84.2569 7.40367 82.5296 6.5885 80.2172 6.5885C77.2143 6.5885 74.6909 7.98242 74.6909 10.8209C74.6909 13.8697 77.4812 14.5283 79.6337 14.9996C81.122 15.342 82.2906 15.6567 82.2906 16.5501C82.2906 17.3653 81.2819 17.812 79.8991 17.812C78.2789 17.812 76.9768 17.2072 75.9401 16.3137L74.2656 18.575C75.3163 19.4654 76.7549 20.2452 78.5955 20.5154L78.1796 22.2302H80.2017L80.9125 20.5753C83.6951 20.302 85.7716 18.7945 85.7716 16.2354C85.7716 13.1866 82.9812 12.528 80.8287 12.0552V12.0537Z" fill="white"/>
<path d="M86.8717 29.817L85.79 30.1025C85.7621 29.7249 85.4362 29.4839 84.9597 29.4839H83.3271C82.4782 29.4839 81.9102 28.9957 81.9102 28.2849C81.9102 27.8136 82.1523 27.3715 82.5356 27.1504C82.1337 26.782 81.8916 26.2646 81.8916 25.6736C81.8916 24.5023 82.8429 23.6165 84.1015 23.6165C84.5035 23.6165 84.8666 23.7086 85.1832 23.8652C85.3043 23.3663 85.7435 23.0531 86.3487 23.0531H86.732V24.0126H86.4061C86.1175 24.0126 85.9018 24.1692 85.8738 24.4179C86.1532 24.7587 86.3115 25.1931 86.3115 25.6721C86.3115 26.8434 85.3508 27.7292 84.1015 27.7292C83.7849 27.7292 83.4854 27.6739 83.2154 27.5726C83.0571 27.6739 82.964 27.8489 82.964 28.0239C82.964 28.291 83.1875 28.4753 83.5242 28.4753H85.1568C86.0802 28.4753 86.7336 28.9834 86.8733 29.8124L86.8717 29.817ZM82.964 25.6751C82.964 26.2846 83.4497 26.7544 84.1015 26.7544C84.7533 26.7544 85.2298 26.2831 85.2298 25.6751C85.2298 25.0672 84.7456 24.5959 84.1015 24.5959C83.4575 24.5959 82.964 25.0565 82.964 25.6751Z" fill="white"/>
<path d="M90.0995 23.6533V24.7141H89.9226C88.9899 24.7141 88.439 25.2775 88.439 26.1449V28.4323H87.3945V23.727H88.439V24.4194C88.7928 23.9404 89.2972 23.6533 89.9226 23.6533H90.0995Z" fill="white"/>
<path d="M90.4258 26.0804C90.4258 24.6788 91.5168 23.6165 92.9725 23.6165C94.4282 23.6165 95.5192 24.6772 95.5192 26.0804C95.5192 27.4835 94.4189 28.5443 92.9725 28.5443C91.5261 28.5443 90.4258 27.4835 90.4258 26.0804ZM94.4375 26.0804C94.4375 25.2499 93.8121 24.6128 92.9725 24.6128C92.1329 24.6128 91.4982 25.2499 91.4982 26.0804C91.4982 26.9109 92.1329 27.548 92.9725 27.548C93.8121 27.548 94.4375 26.9109 94.4375 26.0804Z" fill="white"/>
<path d="M96.3867 26.5609V23.7285H97.4312V26.4227C97.4312 27.0966 97.8967 27.548 98.5873 27.548C99.2779 27.548 99.7342 27.0966 99.7342 26.4227V23.7285H100.779V26.5609C100.779 27.7598 99.9018 28.5443 98.5873 28.5443C97.2729 28.5443 96.3867 27.7598 96.3867 26.5609Z" fill="white"/>
<path d="M107 26.0804C107 27.4836 105.993 28.5444 104.66 28.5444C103.96 28.5444 103.374 28.2496 102.981 27.7507V30.187H101.937V23.7286H102.981V24.4117C103.372 23.9128 103.96 23.618 104.66 23.618C105.993 23.618 107 24.6788 107 26.082V26.0804ZM105.919 26.0804C105.919 25.2499 105.293 24.6128 104.454 24.6128C103.614 24.6128 102.979 25.2499 102.979 26.0804C102.979 26.9109 103.614 27.548 104.454 27.548C105.293 27.548 105.919 26.9109 105.919 26.0804Z" fill="white"/>
</g>
<path d="M114.291 19.3294C113.579 19.3294 112.987 19.1494 112.515 18.7894C112.043 18.4294 111.767 17.9414 111.687 17.3254H112.719C112.783 17.6374 112.947 17.9094 113.211 18.1414C113.483 18.3654 113.847 18.4774 114.303 18.4774C114.727 18.4774 115.039 18.3894 115.239 18.2134C115.439 18.0294 115.539 17.8134 115.539 17.5654C115.539 17.2054 115.407 16.9654 115.143 16.8454C114.887 16.7254 114.523 16.6174 114.051 16.5214C113.731 16.4574 113.411 16.3654 113.091 16.2454C112.771 16.1254 112.503 15.9574 112.287 15.7414C112.071 15.5174 111.963 15.2254 111.963 14.8654C111.963 14.3454 112.155 13.9214 112.539 13.5934C112.931 13.2574 113.459 13.0894 114.123 13.0894C114.755 13.0894 115.271 13.2494 115.671 13.5694C116.079 13.8814 116.315 14.3294 116.379 14.9134H115.383C115.343 14.6094 115.211 14.3734 114.987 14.2054C114.771 14.0294 114.479 13.9414 114.111 13.9414C113.751 13.9414 113.471 14.0174 113.271 14.1694C113.079 14.3214 112.983 14.5214 112.983 14.7694C112.983 15.0094 113.107 15.1974 113.355 15.3334C113.611 15.4694 113.955 15.5854 114.387 15.6814C114.755 15.7614 115.103 15.8614 115.431 15.9814C115.767 16.0934 116.039 16.2654 116.247 16.4974C116.463 16.7214 116.571 17.0494 116.571 17.4814C116.579 18.0174 116.375 18.4614 115.959 18.8134C115.551 19.1574 114.995 19.3294 114.291 19.3294ZM113.355 22.3054V21.6694H114.459C115.003 21.6694 115.275 21.4774 115.275 21.0934C115.275 20.7334 115.003 20.5534 114.459 20.5534H113.871V19.1134H114.543V19.9534C114.999 19.9454 115.371 20.0374 115.659 20.2294C115.947 20.4214 116.091 20.7134 116.091 21.1054C116.091 21.4814 115.955 21.7734 115.683 21.9814C115.411 22.1974 115.063 22.3054 114.639 22.3054H113.355ZM118.743 11.9134C118.543 11.9134 118.375 11.8494 118.239 11.7214C118.111 11.5854 118.047 11.4174 118.047 11.2174C118.047 11.0254 118.111 10.8654 118.239 10.7374C118.375 10.6094 118.543 10.5454 118.743 10.5454C118.935 10.5454 119.099 10.6094 119.235 10.7374C119.371 10.8654 119.439 11.0254 119.439 11.2174C119.439 11.4174 119.371 11.5854 119.235 11.7214C119.099 11.8494 118.935 11.9134 118.743 11.9134ZM118.239 19.1854V13.2334H119.247V19.1854H118.239ZM121.122 19.1854V13.2334H122.034L122.118 14.3734C122.302 13.9814 122.582 13.6694 122.958 13.4374C123.334 13.2054 123.798 13.0894 124.35 13.0894V14.1454H124.074C123.722 14.1454 123.398 14.2094 123.102 14.3374C122.806 14.4574 122.57 14.6654 122.394 14.9614C122.218 15.2574 122.13 15.6654 122.13 16.1854V19.1854H121.122ZM125.601 19.1854V10.5454H126.609V15.7414L129.045 13.2334H130.281L127.641 15.9214L130.617 19.1854H129.333L126.609 16.1014V19.1854H125.601ZM134.011 19.3294C133.443 19.3294 132.939 19.2014 132.499 18.9454C132.059 18.6814 131.711 18.3174 131.455 17.8534C131.207 17.3894 131.083 16.8414 131.083 16.2094C131.083 15.5854 131.207 15.0414 131.455 14.5774C131.703 14.1054 132.047 13.7414 132.487 13.4854C132.935 13.2214 133.451 13.0894 134.035 13.0894C134.611 13.0894 135.107 13.2214 135.523 13.4854C135.947 13.7414 136.271 14.0814 136.495 14.5054C136.719 14.9294 136.831 15.3854 136.831 15.8734C136.831 15.9614 136.827 16.0494 136.819 16.1374C136.819 16.2254 136.819 16.3254 136.819 16.4374H132.079C132.103 16.8934 132.207 17.2734 132.391 17.5774C132.583 17.8734 132.819 18.0974 133.099 18.2494C133.387 18.4014 133.691 18.4774 134.011 18.4774C134.427 18.4774 134.775 18.3814 135.055 18.1894C135.335 17.9974 135.539 17.7374 135.667 17.4094H136.663C136.503 17.9614 136.195 18.4214 135.739 18.7894C135.291 19.1494 134.715 19.3294 134.011 19.3294ZM134.011 13.9414C133.531 13.9414 133.103 14.0894 132.727 14.3854C132.359 14.6734 132.147 15.0974 132.091 15.6574H135.835C135.811 15.1214 135.627 14.7014 135.283 14.3974C134.939 14.0934 134.515 13.9414 134.011 13.9414ZM140.439 19.1854C139.895 19.1854 139.467 19.0534 139.155 18.7894C138.843 18.5254 138.687 18.0494 138.687 17.3614V14.0854H137.655V13.2334H138.687L138.819 11.8054H139.695V13.2334H141.447V14.0854H139.695V17.3614C139.695 17.7374 139.771 17.9934 139.923 18.1294C140.075 18.2574 140.343 18.3214 140.727 18.3214H141.351V19.1854H140.439ZM143.46 11.9134C143.26 11.9134 143.092 11.8494 142.956 11.7214C142.828 11.5854 142.764 11.4174 142.764 11.2174C142.764 11.0254 142.828 10.8654 142.956 10.7374C143.092 10.6094 143.26 10.5454 143.46 10.5454C143.652 10.5454 143.816 10.6094 143.952 10.7374C144.088 10.8654 144.156 11.0254 144.156 11.2174C144.156 11.4174 144.088 11.5854 143.952 11.7214C143.816 11.8494 143.652 11.9134 143.46 11.9134ZM142.956 19.1854V13.2334H143.964V19.1854H142.956ZM148.539 19.3294C147.947 19.3294 147.427 19.1934 146.979 18.9214C146.539 18.6494 146.195 18.2774 145.947 17.8054C145.707 17.3334 145.587 16.7974 145.587 16.1974C145.587 15.5974 145.711 15.0654 145.959 14.6014C146.207 14.1294 146.551 13.7614 146.991 13.4974C147.431 13.2254 147.951 13.0894 148.551 13.0894C149.039 13.0894 149.471 13.1894 149.847 13.3894C150.223 13.5894 150.515 13.8694 150.723 14.2294V10.5454H151.731V19.1854H150.819L150.723 18.2014C150.531 18.4894 150.255 18.7494 149.895 18.9814C149.535 19.2134 149.083 19.3294 148.539 19.3294ZM148.647 18.4534C149.047 18.4534 149.399 18.3614 149.703 18.1774C150.015 17.9854 150.255 17.7214 150.423 17.3854C150.599 17.0494 150.687 16.6574 150.687 16.2094C150.687 15.7614 150.599 15.3694 150.423 15.0334C150.255 14.6974 150.015 14.4374 149.703 14.2534C149.399 14.0614 149.047 13.9654 148.647 13.9654C148.255 13.9654 147.903 14.0614 147.591 14.2534C147.287 14.4374 147.047 14.6974 146.871 15.0334C146.703 15.3694 146.619 15.7614 146.619 16.2094C146.619 16.6574 146.703 17.0494 146.871 17.3854C147.047 17.7214 147.287 17.9854 147.591 18.1774C147.903 18.3614 148.255 18.4534 148.647 18.4534ZM154.106 11.9134C153.906 11.9134 153.738 11.8494 153.602 11.7214C153.474 11.5854 153.41 11.4174 153.41 11.2174C153.41 11.0254 153.474 10.8654 153.602 10.7374C153.738 10.6094 153.906 10.5454 154.106 10.5454C154.298 10.5454 154.462 10.6094 154.598 10.7374C154.734 10.8654 154.802 11.0254 154.802 11.2174C154.802 11.4174 154.734 11.5854 154.598 11.7214C154.462 11.8494 154.298 11.9134 154.106 11.9134ZM153.602 19.1854V13.2334H154.61V19.1854H153.602ZM156.485 19.1854V13.2334H157.397L157.481 14.3734C157.665 13.9814 157.945 13.6694 158.321 13.4374C158.697 13.2054 159.161 13.0894 159.713 13.0894V14.1454H159.437C159.085 14.1454 158.761 14.2094 158.465 14.3374C158.169 14.4574 157.933 14.6654 157.757 14.9614C157.581 15.2574 157.493 15.6654 157.493 16.1854V19.1854H156.485ZM160.832 19.2454C160.632 19.2454 160.464 19.1814 160.328 19.0534C160.2 18.9174 160.136 18.7534 160.136 18.5614C160.136 18.3694 160.2 18.2094 160.328 18.0814C160.464 17.9454 160.632 17.8774 160.832 17.8774C161.024 17.8774 161.184 17.9454 161.312 18.0814C161.448 18.2094 161.516 18.3694 161.516 18.5614C161.516 18.7534 161.448 18.9174 161.312 19.0534C161.184 19.1814 161.024 19.2454 160.832 19.2454Z" fill="white"/>
<defs>
<clipPath id="clip0_2423_757">
<rect width="88" height="30" fill="white" transform="translate(19 0.185425)"/>
</clipPath>
</defs>
</svg>
