<svg width="20" height="21" viewBox="0 0 20 21" fill="none" xmlns="http://www.w3.org/2000/svg">
<g id="Icon">
<path id="Twitter" d="M15.9736 7.51006C16.5607 7.06351 17.089 6.52764 17.5 5.90247C16.9716 6.14063 16.3552 6.31925 15.7387 6.37879C16.3845 5.99178 16.8542 5.39637 17.089 4.65212C16.502 5.00936 15.8268 5.27729 15.1517 5.42614C14.5646 4.80097 13.772 4.44373 12.8914 4.44373C11.1888 4.44373 9.8092 5.84293 9.8092 7.5696C9.8092 7.80776 9.83855 8.04593 9.89726 8.28409C7.34344 8.13524 5.05382 6.88489 3.5274 5.00936C3.26321 5.45591 3.11644 5.99178 3.11644 6.58718C3.11644 7.65891 3.64481 8.61156 4.49609 9.17719C3.99706 9.14742 3.49804 9.02834 3.08708 8.79018V8.81995C3.08708 10.3382 4.14384 11.5886 5.55284 11.8863C5.318 11.9458 5.02446 12.0054 4.76027 12.0054C4.55479 12.0054 4.37867 11.9756 4.17319 11.9458C4.55479 13.1962 5.69961 14.0893 7.0499 14.1191C5.99315 14.9526 4.67221 15.4587 3.23386 15.4587C2.96967 15.4587 2.73483 15.4289 2.5 15.3992C3.85029 16.2923 5.46478 16.7984 7.22603 16.7984C12.8914 16.7984 15.9736 12.0649 15.9736 7.92684C15.9736 7.77799 15.9736 7.65891 15.9736 7.51006Z" fill="white" fill-opacity="0.5"/>
</g>
</svg>
