<svg width="24" height="25" viewBox="0 0 24 25" fill="none" xmlns="http://www.w3.org/2000/svg">
<g id="Icon">
<path id="youtube" d="M21.5612 7.73169C21.3419 6.79419 20.6472 6.052 19.8062 5.81763C18.234 5.34888 12.0183 5.34888 12.0183 5.34888C12.0183 5.34888 5.766 5.34888 4.19378 5.81763C3.35283 6.052 2.65814 6.79419 2.43876 7.73169C2 9.37231 2 12.8879 2 12.8879C2 12.8879 2 16.3645 2.43876 18.0442C2.65814 18.9817 3.35283 19.6848 4.19378 19.9192C5.766 20.3489 12.0183 20.3489 12.0183 20.3489C12.0183 20.3489 18.234 20.3489 19.8062 19.9192C20.6472 19.6848 21.3419 18.9817 21.5612 18.0442C22 16.3645 22 12.8879 22 12.8879C22 12.8879 22 9.37231 21.5612 7.73169ZM9.97075 16.052V9.72388L15.1627 12.8879L9.97075 16.052Z" fill="white" fill-opacity="0.5"/>
</g>
</svg>
