<svg xmlns="http://www.w3.org/2000/svg" xmlns:xlink="http://www.w3.org/1999/xlink" version="1.1" width="841.89" height="595.276" viewBox="0 0 841.89 595.276">
<defs>
<clipPath id="clip_0">
<path transform="matrix(1,0,0,-1,0,595.276)" d="M0 595.276H841.89V0H0Z"/>
</clipPath>
</defs>
<g id="layer_1" data-name="katman 1">
<g clip-path="url(#clip_0)">
<path transform="matrix(1,0,0,-1,166.9678,259.2933)" d="M0 0C-.001 5.633 .034 11.267-.032 16.9-.046 18.156 .332 18.482 1.566 18.481 37.755 18.451 73.944 18.452 110.133 18.479 111.294 18.48 111.777 18.289 111.775 16.962 111.737-14.466 111.746-45.894 111.743-77.322 111.743-77.548 111.707-77.775 111.665-78.258 108.297-75.907 105.065-73.662 101.844-71.401 73.166-51.271 44.491-31.137 15.811-11.009 10.776-7.475 5.723-3.965 .678-.444 .487-.243 .087-.36 0 0" fill="#00abe9"/>
<path transform="matrix(1,0,0,-1,167.232,291.1818)" d="M0 0C13.989-10.026 27.978-20.053 41.968-30.079 43.506-31.181 45.004-32.349 46.606-33.35 47.872-34.141 47.965-34.575 46.656-35.508 41.455-39.218 36.342-43.053 31.186-46.827 21.111-54.198 11.03-61.56 .95-68.923 .634-69.154 .397-69.561-.249-69.425V-.006C-.21 .097-.171 .199-.132 .302-.088 .201-.044 .101 0 0" fill="#00abe9"/>
<path transform="matrix(1,0,0,-1,268.5546,363.9713)" d="M0 0H-65.761C-62.889 2.122-60.314 4.035-57.727 5.932-50.041 11.568-42.323 17.162-34.688 22.866-33.432 23.805-32.692 23.65-31.519 22.799-21.363 15.428-11.156 8.128-.966 .805-.736 .64-.53 .443 0 0" fill="#00abe9"/>
<path transform="matrix(1,0,0,-1,167.232,291.1818)" d="M0 0-.125 .008-.249-.006C-.249-.006-.249-.006-.249-.006-.254 10.625-.259 21.257-.264 31.888-.038 31.74 .188 31.592 .414 31.444-.206 30.863 .067 30.107 .064 29.431 .029 19.62 .017 9.81 0 0" fill="#e9f6fa"/>
<path transform="matrix(1,0,0,-1,460.8696,278.2679)" d="M0 0C-.058 5.085 .834 11.066 3.374 16.729 8.77 28.758 19.364 32.947 30.567 32.252 38.234 31.776 44.813 28.903 49.715 22.824 53.445 18.199 55.359 12.758 56.183 6.942 57.352-1.312 57.039-9.468 54.021-17.353 48.986-30.508 37.411-35.54 24.84-34.319 11.385-33.013 3.313-23.736 .828-10.787 .212-7.575 .004-4.333 0 0" fill="#222021"/>
<path transform="matrix(1,0,0,-1,400.8063,293.1726)" d="M0 0C0-4.209 .002-8.418-.002-12.626-.003-13.314 .123-13.947-.803-14.349-7.574-17.285-14.472-19.711-21.985-19.512-30.022-19.298-37.447-17.344-43.303-11.39-48.338-6.272-50.634 .124-51.519 7.061-52.49 14.671-52.122 22.206-49.108 29.394-44.41 40.596-35.668 46.082-23.793 46.95-15.912 47.527-8.549 45.6-1.509 42.158-.55 41.689-.268 41.152-.295 40.145-.363 37.657-.304 35.166-.33 32.677-.335 32.238-.059 31.64-.544 31.38-1.135 31.064-1.5 31.655-1.887 31.989-6.238 35.746-11.25 38.124-16.893 39.181-29.808 41.6-39.833 34.835-42.294 21.937-43.637 14.902-43.45 7.908-40.9 1.128-37.674-7.45-30.83-12.106-21.661-12.121-17.794-12.127-13.991-11.702-10.245-10.706-8.991-10.373-8.431-9.875-8.468-8.436-8.582-3.993-8.579 .456-8.469 4.9-8.434 6.316-8.901 6.53-10.161 6.504-14.014 6.422-17.872 6.539-21.724 6.441-23.103 6.406-23.469 6.848-23.376 8.152-23.266 9.685-23.311 11.234-23.369 12.773-23.403 13.682-23.119 14.022-22.168 14.018-15.17 13.986-8.172 13.975-1.174 14.025-.028 14.033 .02 13.504 .014 12.626-.016 8.418 0 4.209 0 0" fill="#222021"/>
<path transform="matrix(1,0,0,-1,575.2759,293.1722)" d="M0 0C0-4.209 .005-8.419-.004-12.628-.005-13.304 .151-13.941-.791-14.35-7.563-17.29-14.464-19.711-21.977-19.512-30.483-19.287-38.257-17.102-44.145-10.471-48.495-5.574-50.603 .335-51.441 6.73-52.447 14.408-52.144 21.996-49.147 29.252-44.448 40.623-35.603 46.14-23.572 46.959-15.749 47.492-8.448 45.564-1.471 42.138-.607 41.714-.255 41.266-.287 40.277-.368 37.79-.297 35.298-.328 32.808-.334 32.321-.018 31.647-.593 31.369-1.17 31.089-1.544 31.699-1.927 32.034-5.887 35.486-10.459 37.77-15.559 38.908-23.108 40.594-30.211 39.991-36.009 34.153-39.719 30.417-41.699 25.785-42.501 20.635-43.585 13.67-43.329 6.775-40.517 .234-37.041-7.847-30.78-12.006-21.918-12.117-17.931-12.167-14.005-11.729-10.148-10.685-8.997-10.374-8.421-9.914-8.458-8.523-8.578-4.079-8.575 .371-8.462 4.814-8.424 6.302-8.952 6.529-10.255 6.502-14.109 6.425-17.966 6.522-21.82 6.447-23.02 6.423-23.371 6.8-23.303 7.959-23.212 9.495-23.229 11.043-23.299 12.581-23.345 13.598-23.139 14.038-21.964 14.029-15.024 13.972-8.084 13.982-1.144 14.022-.174 14.028 .027 13.701 .018 12.806-.023 8.537 0 4.269 0 0" fill="#222021"/>
<path transform="matrix(1,0,0,-1,346.2987,311.3956)" d="M0 0C-2.701 0-5.362 .027-8.022-.015-8.921-.029-9.038 .525-9.249 1.181-10.877 6.235-12.565 11.271-14.166 16.334-14.507 17.416-14.884 17.919-16.185 17.903-23.363 17.815-30.544 17.82-37.722 17.899-38.991 17.913-39.433 17.474-39.783 16.352-41.367 11.285-43.048 6.247-44.674 1.193-44.879 .557-44.959-.035-45.882-.017-48.427 .032-50.973 0-53.668 0-51.5 6.456-49.388 12.773-47.259 19.084-42.394 33.507-37.505 47.921-32.679 62.356-32.243 63.662-31.734 64.258-30.232 64.159-27.751 63.996-25.251 64.083-22.76 64.132-21.89 64.149-21.433 63.984-21.114 63.035-14.127 42.229-7.092 21.439-.071 .644-.018 .485-.031 .303 0 0" fill="#222021"/>
<path transform="matrix(1,0,0,-1,458.2609,311.3956)" d="M0 0C-2.754 0-5.415 .046-8.073-.022-9.161-.05-9.123 .773-9.319 1.365-10.989 6.402-12.655 11.441-14.232 16.507-14.55 17.53-14.939 17.897-16.046 17.889-23.339 17.834-30.634 17.838-37.927 17.887-38.934 17.893-39.354 17.595-39.655 16.64-41.266 11.521-42.979 6.434-44.59 1.315-44.906 .307-45.346-.089-46.431-.028-48.205 .071-49.994 .092-51.765-.029-53.281-.132-53.686 .128-53.135 1.745-47.033 19.664-41.002 37.607-34.951 55.543-34.14 57.945-33.258 60.327-32.537 62.756-32.209 63.863-31.689 64.186-30.557 64.145-27.951 64.049-25.339 64.076-22.731 64.135-21.823 64.156-21.402 63.897-21.099 62.995-14.16 42.374-7.184 21.765-.222 1.151-.113 .828-.09 .477 0 0" fill="#222021"/>
<path transform="matrix(1,0,0,-1,629.1991,271.8177)" d="M0 0C0 8.638 .029 15.812-.028 22.984-.037 24.203 .247 24.645 1.525 24.566 3.357 24.453 5.206 24.446 7.037 24.567 8.355 24.655 8.552 24.145 8.548 22.967 8.506 10.34 8.51-2.287 8.531-14.914 8.536-17.816 8.575-20.735 9.224-23.577 10.778-30.39 16.237-34.134 23.844-33.666 25.379-33.571 26.915-33.434 28.408-33.017 33.707-31.534 36.91-27.526 37.573-21.623 37.831-19.322 37.934-17.021 37.932-14.707 37.917-2.198 37.945 10.31 37.894 22.818 37.889 24.16 38.153 24.687 39.602 24.57 41.37 24.429 43.163 24.455 44.935 24.565 46.164 24.642 46.524 24.31 46.506 23.035 46.429 17.464 46.473 11.891 46.473 6.318 46.473-1.21 46.475-8.739 46.472-16.268 46.47-19.656 46.15-23.023 45.282-26.294 43.328-33.65 38.471-38.205 31.191-40.053 25.588-41.475 19.87-41.45 14.325-39.771 6.097-37.279 1.67-31.445 .543-23.045-.551-14.9 .273-6.703 0 0" fill="#222021"/>
<path transform="matrix(1,0,0,-1,585.9811,279.3186)" d="M0 0C0 10.137 .026 20.274-.032 30.41-.04 31.718 .24 32.168 1.604 32.07 3.434 31.939 5.283 31.963 7.116 32.065 8.289 32.13 8.58 31.761 8.574 30.605 8.527 20.765 8.547 10.924 8.547 1.084 8.547-6.919 8.582-14.922 8.513-22.924 8.501-24.265 8.846-24.585 10.172-24.575 18.653-24.51 27.134-24.582 35.614-24.503 37.077-24.489 37.419-24.945 37.322-26.286 37.212-27.819 37.242-29.369 37.316-30.907 37.363-31.872 36.995-32.096 36.093-32.094 24.469-32.07 12.844-32.055 1.22-32.109-.085-32.115-.009-31.47-.008-30.588 .005-20.392 0-10.196 0 0" fill="#222021"/>
<path transform="matrix(1,0,0,-1,541.6498,224.8696)" d="M0 0C3.403 0 3.403 0 3.713-3.472 4.215-9.077 7.805-11.955 12.711-10.676 15.126-10.046 16.491-8.343 17.196-6.076 17.689-4.494 17.967-2.846 17.926-1.183 17.904-.282 18.119 .115 19.092 .017 19.914-.066 20.75 0 21.58 0 25.041 0 25.041 0 24.726-3.404 24.163-9.48 20.701-14.436 15.618-15.742 4.777-18.526-3.199-12.706-3.438-1.019-3.453-.283-3.311 .076-2.488 .014-1.663-.049-.83 0 0 0" fill="#222021"/>
<path transform="matrix(1,0,0,-1,367.1602,224.86981)" d="M0 0C3.334 0 3.354 .002 3.703-3.278 3.823-4.402 4.031-5.489 4.426-6.548 5.523-9.491 7.668-10.996 10.77-10.974 13.742-10.953 15.887-9.426 16.993-6.596 17.672-4.861 17.891-3.04 17.927-1.215 17.947-.169 18.298 .064 19.255 .02 20.792-.052 22.335-.026 23.874 .012 24.591 .03 24.92-.108 24.895-.949 24.798-4.245 24.195-7.406 22.526-10.287 19.769-15.047 14.136-17.274 8.06-16.252-.93-14.74-3.375-6.881-3.429-.852-3.436-.099-3.122 .035-2.487 .008-1.659-.026-.829 0 0 0" fill="#222021"/>
<path transform="matrix(1,0,0,-1,508.7283,278.8543)" d="M0 0C.05-5.223-.452-9.782-2.115-14.165-5.131-22.112-11.213-26.472-19.353-26.5-27.55-26.528-33.842-22.362-36.699-14.363-40.099-4.844-40.01 4.83-36.332 14.27-33.387 21.826-27.461 25.548-19.335 25.525-11.45 25.504-5.602 21.556-2.52 14.18-1.766 12.376-1.181 10.516-.8 8.604-.197 5.578 .118 2.517 0 0" fill="#ffffff"/>
<path transform="matrix(1,0,0,-1,319.4866,256.5678)" d="M0 0C3.13-9.509 6.257-19.018 9.398-28.523 9.676-29.363 9.513-29.65 8.561-29.644 2.754-29.605-3.054-29.618-8.862-29.633-9.581-29.634-10.034-29.529-9.748-28.656-6.615-19.101-3.486-9.543-.356 .013-.238 .009-.119 .004 0 0" fill="#ffffff"/>
<path transform="matrix(1,0,0,-1,421.4784,286.0123)" d="M0 0C3.226 9.879 6.442 19.728 9.795 29.994 10.929 26.551 11.946 23.476 12.955 20.398 15.067 13.959 17.159 7.514 19.299 1.085 19.578 .248 19.733-.204 18.553-.197 12.569-.157 6.584-.174 .599-.163 .434-.162 .269-.076 0 0" fill="#ffffff"/>
<path transform="matrix(1,0,0,-1,320.7885,350.09413)" d="M0 0C-.064-7.595-6.473-13.874-14.041-13.757-22.111-13.632-28.243-7.539-28.183 .294-28.124 8.01-21.809 14.107-13.937 14.046-6.133 13.986 .065 7.74 0 0" fill="#25aae1"/>
<path transform="matrix(1,0,0,-1,345.3979,348.3175)" d="M0 0C3.316 3.935 9.105 3.927 11.373-.242 13.237 2.006 15.553 3.13 18.503 2.868 21.214 2.627 23.034 .919 23.085-1.798 23.156-5.651 23.053-9.508 23.161-13.359 23.204-14.89 22.431-14.965 21.299-14.903 20.259-14.847 19.137-15.18 19.186-13.405 19.273-10.266 19.225-7.12 19.138-3.98 19.069-1.505 18.244-.541 16.33-.396 13.951-.216 12.472-1.317 11.99-3.636 11.366-6.631 11.677-9.665 11.694-12.678 11.703-14.229 11.543-14.954 9.654-14.979 7.609-15.006 7.692-13.999 7.72-12.593 7.772-9.926 7.771-7.256 7.698-4.59 7.621-1.746 6.534-.427 4.408-.392 1.946-.35 .382-1.966 .174-4.634-.051-7.535-.106-10.442 .025-13.339 .103-15.07-.893-14.884-1.994-14.907-3.174-14.932-4.015-14.903-3.979-13.265-3.875-8.642-3.91-4.015-3.964 .609-3.979 1.841-3.751 2.52-2.319 2.406-1.158 2.314 .211 2.695-.118 .722-.144 .565-.068 .391 0 0" fill="#25aae1"/>
<path transform="matrix(1,0,0,-1,444.1789,363.0278)" d="M0 0C-.365-.128-.416-.156-.47-.163-3.354-.568-5.686 .045-7.452 2.703-8.834 4.783-10.717 6.53-12.695 8.785-12.695 5.969-12.788 3.626-12.662 1.294-12.576-.311-13.502-.217-14.556-.188-15.607-.16-16.658-.436-16.643 1.324-16.57 9.677-16.561 18.031-16.649 26.384-16.668 28.188-15.609 27.811-14.594 27.868-13.433 27.932-12.615 27.929-12.652 26.269-12.767 21-12.695 15.727-12.695 10.305-11.655 10.611-11.18 11.467-10.529 12.065-9.525 12.986-8.446 13.872-7.642 14.953-5.933 17.252-3.674 17.377-1.203 16.963-2.995 15.044-4.72 13.072-6.582 11.238-8.304 9.542-8.393 9.586-6.789 7.728-4.592 5.183-2.353 2.674 0 0" fill="#26aae1"/>
<path transform="matrix(1,0,0,-1,402.2581,360.99183)" d="M0 0C-1.868-2.102-3.817-2.962-6.133-2.803-10.337-2.514-12.866 .074-13.454 4.696-13.672 6.408-13.599 8.133-13.113 9.805-12.317 12.536-10.704 14.558-7.885 15.367-4.973 16.203-2.56 15.392-.051 12.713-.414 14.832 .583 15.162 2.269 15.113 3.654 15.073 3.936 14.626 3.916 13.351 3.846 8.791 3.884 4.229 3.892-.332 3.894-1.239 4.026-2.262 2.613-2.019 1.551-1.836-.297-2.923 0 0" fill="#25aae1"/>
<path transform="matrix(1,0,0,-1,637.5283,361.0173)" d="M0 0C-2.494-2.878-5.284-3.288-8.25-2.374-11.288-1.438-12.65 .962-13.207 3.975-13.663 6.437-13.43 8.767-12.548 11.104-10.591 16.291-3.135 17.183-.106 12.791 .288 13.696-.544 15.25 1.418 15.129 4.561 14.935 3.934 15.242 3.957 12.536 3.992 8.331 3.99 4.126 3.943-.079 3.935-.818 4.487-2.129 2.932-1.971 1.779-1.854-.181-3.039 0 0" fill="#25aae1"/>
<path transform="matrix(1,0,0,-1,599.7176,348.0061)" d="M0 0C.279 1.881 1.683 2.676 3.516 2.038 4.352 1.748 4.072 1.079 4.074 .55 4.098-4.072 4.085-8.694 4.092-13.316 4.094-14.223 4.222-15.23 2.809-15.011 1.719-14.843-.072-15.85 .134-13.211-1.413-14.644-2.902-15.678-4.925-15.778-8.512-15.954-11.186-14.411-12.469-11.079-13.571-8.217-13.576-5.277-12.58-2.391-10.746 2.926-3.767 4.531 0 0" fill="#25aae1"/>
<path transform="matrix(1,0,0,-1,521.8806,348.3587)" d="M0 0C2.403 2.948 5.361 3.26 8.47 2.787 11.121 2.383 12.604 .548 12.719-2.555 12.856-6.224 12.748-9.902 12.782-13.576 12.799-15.473 11.389-14.711 10.487-14.84 9.513-14.98 8.802-14.863 8.829-13.505 8.89-10.367 8.958-7.214 8.71-4.092 8.475-1.136 7.499-.348 5.022-.349 2.254-.35 .701-1.675 .283-4.364-.166-7.253 .044-10.163 .098-13.057 .126-14.621-.446-14.938-1.851-14.891-3.134-14.847-3.943-14.805-3.897-13.111-3.778-8.729-3.89-4.341-3.83 .044-3.818 .988-4.515 2.474-2.495 2.439-.984 2.414 .646 2.68 0 0" fill="#25aae1"/>
<path transform="matrix(1,0,0,-1,561.3785,345.44343)" d="M0 0C1.78 .048 3.432-.292 4.704-1.654 5.075-2.051 5.8-2.619 4.947-3.058 4.145-3.472 3.647-4.99 2.37-4.02 1.948-3.7 1.59-3.305 1.08-3.107-.257-2.587-1.948-3.019-2.365-4.071-2.978-5.619-1.804-6.23-.742-6.755 .582-7.408 1.991-7.886 3.334-8.504 5.368-9.44 6.434-11.054 6.328-13.302 6.223-15.502 4.781-17.168 2.502-17.918-1.048-19.087-4.919-18.256-6.614-15.87-6.914-15.447-8.048-14.667-6.774-14.258-5.847-13.96-5.024-11.924-3.764-13.781-2.712-15.33-1.187-15.548 .481-15.34 1.443-15.22 2.125-14.67 2.395-13.718 2.696-12.659 2.068-11.962 1.26-11.545-.42-10.677-2.192-9.987-3.873-9.121-5.432-8.317-6.458-7.113-6.468-5.202-6.484-1.948-4.088 .009 0 0" fill="#26aae1"/>
<path transform="matrix(1,0,0,-1,663.9196,356.2918)" d="M0 0C0 1.775-.078 3.554 .026 5.322 .1 6.587-.345 7.072-1.57 6.873-2.867 6.662-3.188 7.285-3.13 8.479-3.078 9.559-3.149 10.596-1.597 10.352-.172 10.127 .117 10.836 .019 12.077-.07 13.193 .085 14.331-.019 15.445-.18 17.172 1.013 16.804 1.949 16.794 2.867 16.783 4.087 17.218 3.94 15.466 3.836 14.233 3.982 12.979 3.901 11.743 3.83 10.645 4.245 10.193 5.315 10.361 6.861 10.602 6.83 9.639 6.854 8.535 6.878 7.42 6.732 6.648 5.361 6.873 4.154 7.072 3.879 6.495 3.898 5.376 3.958 1.768 3.84-1.843 3.956-5.448 4.008-7.049 3.127-6.98 2.076-6.918 1.104-6.861-.152-7.354-.027-5.499 .097-3.674 0-1.834 0 0" fill="#26aae1"/>
<path transform="matrix(1,0,0,-1,496.2053,350.126)" d="M0 0C0-3.792-.05-7.584 .028-11.374 .055-12.687-.326-13.141-1.671-13.116-4.282-13.067-4.284-13.14-4.284-10.583-4.284-3.237-4.214 4.111-4.333 11.455-4.363 13.304-3.687 13.51-2.1 13.55-.366 13.592 .104 13.092 .042 11.373-.095 7.587-.001 3.792 0 0" fill="#25aae1"/>
<path transform="matrix(1,0,0,-1,562.7438,365.8011)" d="M0 0C-.169-.238-.298-.435-.443-.619-1.354-1.783-2.291-2.928-3.173-4.114-3.633-4.732-4.049-4.849-4.803-4.528-6.068-3.99-6.397-3.411-5.419-2.274-4.847-1.609-4.458-.787-3.98-.04-3.081 1.363-1.409 1.555-.276 .384-.169 .273-.094 .133 0 0" fill="#2aabe1"/>
<path transform="matrix(1,0,0,-1,493.9477,333.4292)" d="M0 0C-1.361 .167-2.114 .979-2.168 2.32-2.218 3.561-.911 4.756 .279 4.573 1.611 4.369 2.393 3.557 2.322 2.148 2.25 .724 1.396 .076 0 0" fill="#2aabe1"/>
<path transform="matrix(1,0,0,-1,297.1535,349.96589)" d="M0 0C-.014 5.658 4.116 9.885 9.646 9.872 14.968 9.86 19.249 5.499 19.268 .07 19.287-5.391 14.901-9.841 9.519-9.822 4.103-9.803 .013-5.584 0 0" fill="#ffffff"/>
<path transform="matrix(1,0,0,-1,392.9166,354.6166)" d="M0 0C.011 4.292 2.813 6.721 6.359 5.512 8.579 4.756 9.782 1.977 9.297-1.27 8.905-3.894 6.947-5.764 4.578-5.777 1.69-5.794-.009-3.65 0 0" fill="#ffffff"/>
<path transform="matrix(1,0,0,-1,628.2607,354.5937)" d="M0 0C.013 4.246 2.615 6.577 6.178 5.534 8.559 4.837 9.756 2.253 9.307-1.224 8.972-3.822 7.02-5.762 4.701-5.803 1.724-5.855-.012-3.713 0 0" fill="#ffffff"/>
<path transform="matrix(1,0,0,-1,600.084,354.5346)" d="M0 0C.008-4.418-3.596-7.112-7.09-5.301-8.961-4.332-9.96-1.431-9.422 1.471-8.916 4.2-6.834 5.941-4.367 5.697-1.622 5.426-.006 3.317 0 0" fill="#ffffff"/>
</g>
</g>
</svg>
