<svg width="34" height="24" viewBox="0 0 34 24" fill="none" xmlns="http://www.w3.org/2000/svg">
<g id="Group 1012">
<g id="Vector">
<path d="M10.7817 11.9833C9.53634 11.264 7.62386 10.3539 5.58301 10.103C5.12342 10.0466 4.66781 10.2212 4.36335 10.5701C4.05852 10.9198 3.94751 11.396 4.06611 11.844C4.2357 12.4844 4.5785 13.0789 5.08437 13.6108C5.17332 13.7045 5.29301 13.763 5.42174 13.7764C5.49442 13.784 6.86523 13.9229 8.70575 13.9229C9.21343 13.9229 9.75727 13.9124 10.3192 13.8856C10.7755 13.8639 11.1548 13.5508 11.2626 13.1064C11.3704 12.6627 11.1769 12.2114 10.782 11.9833H10.7817ZM5.73705 12.7159C5.43114 12.3582 5.22178 11.9721 5.11438 11.566C5.07641 11.4224 5.14801 11.3201 5.18055 11.2829C5.21274 11.2456 5.30422 11.1614 5.4503 11.1794C7.20875 11.3957 8.88764 12.1633 10.0444 12.8117C8.065 12.8912 6.3185 12.7654 5.73741 12.7159H5.73705Z" fill="#2894AF"/>
<path d="M10.2389 12.9223L10.5101 12.4526M10.7817 11.9833C9.53634 11.264 7.62386 10.3539 5.58301 10.103C5.12342 10.0466 4.66781 10.2212 4.36335 10.5701C4.05852 10.9198 3.94751 11.396 4.06611 11.844C4.2357 12.4844 4.5785 13.0789 5.08437 13.6108C5.17332 13.7045 5.29301 13.763 5.42174 13.7764C5.49442 13.784 6.86523 13.9229 8.70575 13.9229C9.21343 13.9229 9.75727 13.9124 10.3192 13.8856C10.7755 13.8639 11.1548 13.5508 11.2626 13.1064C11.3704 12.6627 11.1769 12.2114 10.782 11.9833H10.7817ZM5.73705 12.7159C5.43114 12.3582 5.22178 11.9721 5.11438 11.566C5.07641 11.4224 5.14801 11.3201 5.18055 11.2829C5.21274 11.2456 5.30422 11.1614 5.4503 11.1794C7.20875 11.3957 8.88764 12.1633 10.0444 12.8117C8.065 12.8912 6.3185 12.7654 5.73741 12.7159H5.73705Z" stroke="#2894AF"/>
</g>
<path id="Vector_2" d="M23.3539 11.9833C22.9586 12.2114 22.7655 12.6627 22.8733 13.1064C22.981 13.5508 23.3604 13.8639 23.8167 13.8856C24.3786 13.9124 24.9221 13.9229 25.4301 13.9229C27.2707 13.9229 28.6418 13.784 28.7142 13.7764C28.8429 13.763 28.9622 13.7045 29.0515 13.6108C29.5574 13.0789 29.8998 12.4844 30.0698 11.844C30.1887 11.396 30.0774 10.9194 29.7729 10.5701C29.4684 10.2212 29.0128 10.0466 28.5532 10.103C26.5124 10.3543 24.5995 11.264 23.3546 11.9833H23.3539ZM28.955 11.2829C28.9875 11.3201 29.0591 11.4224 29.0211 11.566C28.9138 11.9721 28.7044 12.3582 28.3985 12.7159C27.8174 12.7654 26.0709 12.8909 24.0915 12.8117C25.2483 12.1633 26.9271 11.3957 28.6856 11.1794C28.8317 11.1614 28.9228 11.246 28.9553 11.2829H28.955Z" fill="#2894AF" stroke="#2894AF"/>
<path id="Vector_3" d="M32.7881 6.76362C32.7881 5.73994 31.9553 4.90719 30.9316 4.90719H28.6232C28.3238 4.90719 28.0808 5.15018 28.0808 5.44958V6.33875C27.9669 5.97028 27.8262 5.54757 27.6596 5.10498C26.9667 3.26771 26.1821 2.03033 25.3269 1.42683C25.2567 1.37729 25.1754 1.34511 25.0904 1.33281C25.0477 1.32666 20.9906 0.756065 17.3783 0.700018C17.3566 0.697487 17.3345 0.695679 17.3121 0.695679C17.2311 0.695679 17.1498 0.69604 17.068 0.696763C16.9863 0.69604 16.905 0.695679 16.824 0.695679C16.8015 0.695679 16.7795 0.697487 16.7578 0.700018C13.1458 0.756065 9.08834 1.32666 9.04567 1.33281C8.9607 1.34474 8.87934 1.37693 8.80919 1.42683C7.95402 2.03033 7.16935 3.26807 6.47653 5.10498C6.30948 5.54794 6.16882 5.97028 6.05491 6.33875V5.44958C6.05491 5.15018 5.81192 4.90719 5.51252 4.90719H3.20409C2.18041 4.90719 1.34766 5.73994 1.34766 6.76362C1.34766 7.7873 2.18547 8.63127 3.2153 8.63127H3.55701C3.24748 8.85075 2.97665 9.0612 2.74993 9.24743C2.17969 9.71605 1.85281 10.4081 1.85281 11.1462V21.784C1.85281 22.5469 2.4733 23.1674 3.23627 23.1674H6.23607C6.99904 23.1674 7.61954 22.5469 7.61954 21.784V20.2099H26.5165V21.784C26.5165 22.5469 27.137 23.1674 27.9 23.1674H30.8998C31.6628 23.1674 32.2833 22.5469 32.2833 21.784V11.1462C32.2833 10.4081 31.9564 9.71605 31.3862 9.24743C31.1594 9.0612 30.8886 8.85075 30.5791 8.63127H30.9208C31.9506 8.63127 32.7884 7.79345 32.7884 6.76362H32.7881ZM29.1652 7.40401V5.99198H30.9313C31.3569 5.99198 31.7029 6.33802 31.7029 6.76362C31.7029 7.18922 31.3518 7.54648 30.9201 7.54648H29.1461C29.1584 7.50092 29.1649 7.45319 29.1649 7.40365L29.1652 7.40401ZM9.33459 2.38795C10.0892 2.28634 13.8227 1.80469 17.0677 1.78119C20.3108 1.80469 24.0461 2.28634 24.8008 2.38795C25.9224 3.28471 26.8004 5.7526 27.2068 7.20405H6.92853C7.33496 5.7526 8.21292 3.28471 9.33459 2.38795ZM2.43208 6.76362C2.43208 6.33802 2.77813 5.99198 3.20373 5.99198H4.96976V7.40401C4.96976 7.45355 4.97627 7.50128 4.98857 7.54684H3.21458C2.78283 7.54684 2.43172 7.19573 2.43172 6.76398L2.43208 6.76362ZM6.53439 21.7843C6.53439 21.9488 6.40024 22.083 6.23571 22.083H3.23591C3.07138 22.083 2.93723 21.9488 2.93723 21.7843V20.0581C3.15925 20.1557 3.40478 20.2103 3.66259 20.2103H6.53439V21.7843ZM16.8236 19.1251H8.44109V18.3564C8.44109 17.0865 9.47416 16.0534 10.7441 16.0534H23.3909C24.6608 16.0534 25.6939 17.0865 25.6939 18.3564V19.1251H16.8236ZM30.8995 22.083H27.8997C27.7351 22.083 27.601 21.9488 27.601 21.7843V20.2103H30.4728C30.7306 20.2103 30.9758 20.1557 31.1981 20.0581V21.7843C31.1981 21.9488 31.064 22.083 30.8995 22.083ZM31.1978 11.1465V18.4001C31.1978 18.8001 30.8723 19.1255 30.4724 19.1255H26.7787V18.3568C26.7787 16.4887 25.2589 14.969 23.3909 14.969H10.7441C8.87609 14.969 7.3563 16.4887 7.3563 18.3568V19.1255H3.66259C3.26267 19.1255 2.93723 18.8001 2.93723 18.4001V11.1465C2.93723 10.7339 3.11984 10.3474 3.4384 10.0856C4.07698 9.56057 5.09307 8.82906 6.34021 8.28883H27.7952C29.0423 8.82942 30.058 9.56093 30.6966 10.0856C31.0152 10.3474 31.1978 10.7339 31.1978 11.1465Z" fill="#2894AF" stroke="#2894AF"/>
</g>
</svg>
