<svg width="20" height="21" viewBox="0 0 20 21" fill="none" xmlns="http://www.w3.org/2000/svg">
<g id="Frame">
<path id="Vector" d="M6.98356 7.87779C7.56355 9.08583 8.35425 10.218 9.3555 11.2193C10.3568 12.2207 11.4891 13.0113 12.6971 13.5913C12.801 13.6412 12.8529 13.6662 12.9187 13.6853C13.1523 13.7534 13.4392 13.7045 13.637 13.5628C13.6927 13.5229 13.7403 13.4753 13.8356 13.3801C14.1269 13.0887 14.2726 12.943 14.4191 12.8478C14.9715 12.4887 15.6837 12.4887 16.2361 12.8478C16.3826 12.943 16.5282 13.0887 16.8196 13.3801L16.9819 13.5424C17.4248 13.9853 17.6462 14.2068 17.7665 14.4446C18.0057 14.9175 18.0057 15.4761 17.7665 15.9491C17.6462 16.1868 17.4248 16.4083 16.9819 16.8512L16.8506 16.9825C16.4092 17.4239 16.1886 17.6446 15.8885 17.8131C15.5556 18.0001 15.0385 18.1346 14.6567 18.1334C14.3126 18.1324 14.0773 18.0657 13.607 17.9322C11.0792 17.2147 8.69383 15.861 6.70388 13.871C4.7139 11.881 3.36017 9.49567 2.6427 6.96787C2.50919 6.49749 2.44243 6.26231 2.44141 5.91818C2.44027 5.53633 2.57474 5.01926 2.76176 4.68633C2.9303 4.38631 3.15097 4.16563 3.59233 3.72427L3.72369 3.59292C4.16656 3.15005 4.388 2.92861 4.62581 2.80833C5.09878 2.5691 5.65733 2.5691 6.1303 2.80833C6.36811 2.92861 6.58955 3.15005 7.03242 3.59292L7.19481 3.75531C7.48615 4.04664 7.63182 4.19232 7.72706 4.33879C8.08622 4.89121 8.08622 5.60336 7.72706 6.15577C7.63182 6.30224 7.48615 6.44792 7.19481 6.73925C7.09955 6.83452 7.05192 6.88214 7.01205 6.93782C6.87038 7.13568 6.82146 7.42256 6.88956 7.65619C6.90873 7.72193 6.93367 7.77388 6.98356 7.87779Z" stroke="#64666A" stroke-width="1.5" stroke-linecap="round" stroke-linejoin="round"/>
</g>
</svg>
