<svg width="44" height="44" viewBox="0 0 44 44" fill="none" xmlns="http://www.w3.org/2000/svg">
<path fill-rule="evenodd" clip-rule="evenodd" d="M25.8576 26.9185C24.6065 27.9357 23.0108 28.5455 21.2727 28.5455C17.2561 28.5455 14 25.2893 14 21.2727C14 17.2561 17.2561 14 21.2727 14C25.2893 14 28.5455 17.2561 28.5455 21.2727C28.5455 23.011 27.9356 24.6068 26.9183 25.8579L30.5298 29.4693L29.4691 30.53L25.8576 26.9185ZM27.0455 21.2727C27.0455 24.4609 24.4609 27.0455 21.2727 27.0455C18.0845 27.0455 15.5 24.4609 15.5 21.2727C15.5 18.0845 18.0845 15.5 21.2727 15.5C24.4609 15.5 27.0455 18.0845 27.0455 21.2727Z" fill="#2894AF"/>
</svg>
