<svg width="46" height="45" viewBox="0 0 46 45" fill="none" xmlns="http://www.w3.org/2000/svg">
<path d="M17.375 21.5623L21.125 25.3123L29.5625 16.8747M38 22.4998C38 31.703 27.9612 38.3968 24.3087 40.5275C23.8936 40.7698 23.6861 40.8909 23.3932 40.9537C23.1657 41.0024 22.8343 41.0024 22.6068 40.9537C22.3139 40.8909 22.1064 40.7698 21.6913 40.5275C18.0387 38.3968 8 31.703 8 22.4998V13.5327C8 12.0336 8 11.2841 8.24518 10.6398C8.46176 10.0706 8.81371 9.56273 9.27061 9.16007C9.78781 8.70428 10.4896 8.4411 11.8932 7.91473L21.9466 4.14471C22.3364 3.99853 22.5313 3.92545 22.7319 3.89648C22.9096 3.87077 23.0904 3.87077 23.2681 3.89648C23.4687 3.92545 23.6636 3.99853 24.0534 4.14471L34.1067 7.91473C35.5104 8.4411 36.2122 8.70428 36.7293 9.16007C37.1862 9.56273 37.5382 10.0706 37.7547 10.6398C38 11.2841 38 12.0336 38 13.5327V22.4998Z" stroke="#141414" stroke-width="2" stroke-linecap="round" stroke-linejoin="round"/>
</svg>
