<svg width="20" height="21" viewBox="0 0 20 21" fill="none" xmlns="http://www.w3.org/2000/svg">
<g id="Frame">
<path id="Vector" d="M5.00008 5.49996L8.75008 9.24996M5.00008 5.49996H2.50008L1.66675 2.99996L2.50008 2.16663L5.00008 2.99996V5.49996ZM16.0492 2.78413L13.8596 4.97382C13.5296 5.30383 13.3645 5.46883 13.3027 5.65911C13.2483 5.82648 13.2483 6.00677 13.3027 6.17414C13.3645 6.36442 13.5296 6.52942 13.8596 6.85943L14.0572 7.05715C14.3872 7.38717 14.5523 7.55217 14.7426 7.61399C14.9099 7.66838 15.0902 7.66838 15.2576 7.61399C15.4478 7.55217 15.6129 7.38717 15.9429 7.05715L17.9912 5.00889C18.2117 5.54569 18.3334 6.13362 18.3334 6.74996C18.3334 9.28129 16.2814 11.3333 13.7501 11.3333C13.4449 11.3333 13.1467 11.3035 12.8582 11.2465C12.4531 11.1667 12.2505 11.1267 12.1277 11.139C11.9972 11.152 11.9328 11.1715 11.8172 11.2335C11.7083 11.2917 11.5992 11.4008 11.3809 11.6191L5.41675 17.5833C4.72639 18.2736 3.60711 18.2736 2.91675 17.5833C2.22639 16.893 2.22639 15.7736 2.91675 15.0833L8.88091 9.11913C9.09925 8.90079 9.20833 8.79167 9.26658 8.68287C9.3285 8.56719 9.34808 8.50285 9.36108 8.3723C9.37333 8.2495 9.33333 8.04694 9.2535 7.64183C9.19658 7.35334 9.16675 7.05513 9.16675 6.74996C9.16675 4.21865 11.2187 2.16663 13.7501 2.16663C14.588 2.16663 15.3734 2.39148 16.0492 2.78413ZM10.0002 12.9999L14.5834 17.5832C15.2737 18.2735 16.3931 18.2735 17.0834 17.5832C17.7737 16.8929 17.7737 15.7735 17.0834 15.0832L13.3128 11.3127C13.0459 11.2875 12.7857 11.2393 12.5341 11.1702C12.2098 11.0812 11.8542 11.1459 11.6165 11.3835L10.0002 12.9999Z" stroke="#64666A" stroke-width="1.5" stroke-linecap="round" stroke-linejoin="round"/>
</g>
</svg>
