<svg width="20" height="21" viewBox="0 0 20 21" fill="none" xmlns="http://www.w3.org/2000/svg">
<g id="Frame">
<path id="Vector" d="M16.2499 15.0833C16.2499 16.2339 15.3172 17.1667 14.1666 17.1667C13.016 17.1667 12.0833 16.2339 12.0833 15.0833C12.0833 13.9327 13.016 13 14.1666 13C15.3172 13 16.2499 13.9327 16.2499 15.0833Z" stroke="#64666A" stroke-width="1.5"/>
<path id="Vector_2" d="M7.91667 15.0833C7.91667 16.2339 6.98392 17.1667 5.83333 17.1667C4.68274 17.1667 3.75 16.2339 3.75 15.0833C3.75 13.9327 4.68274 13 5.83333 13C6.98392 13 7.91667 13.9327 7.91667 15.0833Z" stroke="#64666A" stroke-width="1.5"/>
<path id="Vector_3" d="M12.0834 15.0834H7.91675M16.2501 15.0834H16.8861C17.0693 15.0834 17.161 15.0834 17.238 15.0738C17.8058 15.003 18.2531 14.5558 18.3238 13.988C18.3334 13.911 18.3334 13.8193 18.3334 13.636V11.3334C18.3334 8.34183 15.9083 5.91671 12.9167 5.91671M12.5001 13.4167V6.33337C12.5001 5.15487 12.5001 4.56561 12.134 4.19949C11.7678 3.83337 11.1786 3.83337 10.0001 3.83337H4.16675C2.98824 3.83337 2.39898 3.83337 2.03286 4.19949C1.66675 4.56561 1.66675 5.15487 1.66675 6.33337V13C1.66675 13.7789 1.66675 14.1683 1.83421 14.4584C1.94392 14.6484 2.10172 14.8062 2.29175 14.9159C2.58181 15.0834 2.97123 15.0834 3.75008 15.0834" stroke="#64666A" stroke-width="1.5" stroke-linecap="round" stroke-linejoin="round"/>
</g>
</svg>
