<svg width="45" height="44" viewBox="0 0 45 44" fill="none" xmlns="http://www.w3.org/2000/svg">
<g id="Frame">
<path id="Vector" d="M31.6667 36.6666C33.6917 36.6666 35.3333 35.025 35.3333 32.9999C35.3333 30.9749 33.6917 29.3333 31.6667 29.3333C29.6416 29.3333 28 30.9749 28 32.9999C28 35.025 29.6416 36.6666 31.6667 36.6666Z" stroke="#141414" stroke-width="1.5"/>
<path id="Vector_2" d="M13.3334 36.6666C15.3585 36.6666 17.0001 35.025 17.0001 32.9999C17.0001 30.9749 15.3585 29.3333 13.3334 29.3333C11.3084 29.3333 9.66675 30.9749 9.66675 32.9999C9.66675 35.025 11.3084 36.6666 13.3334 36.6666Z" stroke="#141414" stroke-width="1.5"/>
<path id="Vector_3" d="M9.66675 32.9493C7.65609 32.8492 6.40176 32.55 5.50917 31.6575C4.61657 30.7649 4.31748 29.5105 4.21726 27.4999M17.0001 32.9999H28.0001M35.3334 32.9493C37.344 32.8492 38.5984 32.55 39.491 31.6575C40.8334 30.315 40.8334 28.1544 40.8334 23.8333V20.1666H32.2167C30.8518 20.1666 30.1693 20.1666 29.6171 19.9871C28.5008 19.6245 27.6255 18.7492 27.2629 17.633C27.0834 17.0807 27.0834 16.3982 27.0834 15.0333C27.0834 12.9858 27.0834 11.9621 26.8143 11.1337C26.2701 9.45926 24.9575 8.14648 23.2831 7.60244C22.4546 7.33325 21.4309 7.33325 19.3834 7.33325H4.16675" stroke="#141414" stroke-width="1.5" stroke-linecap="round" stroke-linejoin="round"/>
<path id="Vector_4" d="M4.16675 14.6667H15.1667" stroke="#141414" stroke-width="1.5" stroke-linecap="round" stroke-linejoin="round"/>
<path id="Vector_5" d="M4.16675 20.1667H11.5001" stroke="#141414" stroke-width="1.5" stroke-linecap="round" stroke-linejoin="round"/>
<path id="Vector_6" d="M27.0833 11H30.4221C33.0904 11 34.4243 11 35.51 11.6485C36.5957 12.2969 37.2282 13.4715 38.4932 15.8208L40.8333 20.1667" stroke="#141414" stroke-width="1.5" stroke-linecap="round" stroke-linejoin="round"/>
</g>
</svg>
