<svg width="45" height="45" viewBox="0 0 45 45" fill="none" xmlns="http://www.w3.org/2000/svg">
<g id="Frame">
<path id="Vector" d="M9.375 22.5C9.375 15.2513 15.2513 9.375 22.5 9.375M30.9373 14.0625L22.4998 22.5M41.25 22.5C41.25 32.8552 32.8552 41.25 22.5 41.25C12.1447 41.25 3.75 32.8552 3.75 22.5C3.75 12.1447 12.1447 3.75 22.5 3.75C32.8552 3.75 41.25 12.1447 41.25 22.5ZM24.375 22.5C24.375 23.5356 23.5356 24.375 22.5 24.375C21.4644 24.375 20.625 23.5356 20.625 22.5C20.625 21.4644 21.4644 20.625 22.5 20.625C23.5356 20.625 24.375 21.4644 24.375 22.5Z" stroke="#141414" stroke-width="2" stroke-linecap="round" stroke-linejoin="round"/>
</g>
</svg>
