<svg width="45" height="45" viewBox="0 0 45 45" fill="none" xmlns="http://www.w3.org/2000/svg">
<g id="Frame">
<path id="Vector" d="M11.25 11.25L19.6875 19.6875M11.25 11.25H5.625L3.75 5.625L5.625 3.75L11.25 5.625V11.25ZM36.1106 5.13939L31.1839 10.0662C30.4414 10.8087 30.0699 11.18 29.931 11.6081C29.8086 11.9847 29.8086 12.3903 29.931 12.7669C30.0699 13.195 30.4414 13.5663 31.1839 14.3088L31.6286 14.7537C32.3711 15.4962 32.7426 15.8675 33.1706 16.0066C33.5471 16.1289 33.9529 16.1289 34.3294 16.0066C34.7574 15.8675 35.1289 15.4962 35.8714 14.7537L40.4799 10.1451C40.9763 11.3529 41.25 12.6757 41.25 14.0625C41.25 19.758 36.633 24.375 30.9375 24.375C30.2509 24.375 29.5798 24.3079 28.9309 24.1798C28.0193 24.0002 27.5634 23.9102 27.2872 23.9377C26.9934 23.967 26.8487 24.0111 26.5884 24.1504C26.3436 24.2814 26.0981 24.5269 25.6069 25.0181L12.1875 38.4375C10.6342 39.9908 8.11581 39.9908 6.5625 38.4375C5.00919 36.8842 5.00919 34.3658 6.5625 32.8125L19.9819 19.3931C20.4731 18.9019 20.7186 18.6563 20.8496 18.4115C20.9889 18.1513 21.033 18.0065 21.0623 17.7128C21.0898 17.4365 20.9998 16.9807 20.8202 16.0692C20.6921 15.4201 20.625 14.7491 20.625 14.0625C20.625 8.36706 25.242 3.75 30.9375 3.75C32.8228 3.75 34.59 4.25591 36.1106 5.13939ZM22.5002 28.1248L32.8125 38.4373C34.3658 39.9906 36.8842 39.9906 38.4375 38.4373C39.9908 36.8841 39.9908 34.3656 38.4375 32.8123L29.9537 24.3287C29.3531 24.2719 28.7676 24.1635 28.2015 24.0081C27.4719 23.8078 26.6717 23.9533 26.1369 24.4881L22.5002 28.1248Z" stroke="#141414" stroke-width="2" stroke-linecap="round" stroke-linejoin="round"/>
</g>
</svg>
