<svg width="45" height="45" viewBox="0 0 45 45" fill="none" xmlns="http://www.w3.org/2000/svg">
<g id="Frame">
<path id="Vector" d="M31.8789 39.375C33.9492 39.375 35.6276 37.6961 35.6276 35.625C35.6276 33.5539 33.9492 31.875 31.8789 31.875C29.8087 31.875 28.1304 33.5539 28.1304 35.625C28.1304 37.6961 29.8087 39.375 31.8789 39.375Z" stroke="#141414" stroke-width="1.5"/>
<path id="Vector_2" d="M13.1365 39.375C15.2067 39.375 16.885 37.6961 16.885 35.625C16.885 33.5539 15.2067 31.875 13.1365 31.875C11.0662 31.875 9.38794 33.5539 9.38794 35.625C9.38794 37.6961 11.0662 39.375 13.1365 39.375Z" stroke="#141414" stroke-width="1.5"/>
<path id="Vector_3" d="M22.5073 22.5L11.2617 5.625M11.2617 5.625L15.0103 24.375M11.2617 5.625H7.1961C6.84165 5.625 6.54269 5.92684 6.49877 6.32901L5.8737 12.0536C7.03806 12.0536 7.98195 13.1329 7.98195 14.4643C7.98195 15.7957 7.03806 16.875 5.8737 16.875C4.95576 16.875 4.05407 16.2042 3.76465 15.2679M35.6273 35.625C40.6564 35.625 41.25 33.885 41.25 29.0859C41.25 26.7891 41.25 25.6406 40.8 24.6709C40.3301 23.6584 39.4834 23.0276 37.7025 21.7371C35.9338 20.4553 34.6763 19.0144 33.4779 17.0295C31.7691 14.1987 30.9146 12.7833 29.6331 12.0167C28.3517 11.25 26.8403 11.25 23.8174 11.25H22.5073V24.375" stroke="#141414" stroke-width="1.5" stroke-linecap="round" stroke-linejoin="round"/>
<path id="Vector_4" d="M9.38721 35.6176C9.38721 35.6176 7.21318 35.6369 6.53844 35.5501C5.97617 35.3251 5.29292 34.7972 4.85162 34.5038C3.50214 33.6066 3.77203 33.9751 3.77203 33.1651C3.77203 31.8987 3.7644 26.2619 3.7644 26.2619V24.4619C3.7644 24.3494 3.64875 24.3734 4.5141 24.3869H40.2752M16.8845 35.6288H28.1301" stroke="#141414" stroke-width="1.5" stroke-linecap="round"/>
</g>
</svg>
