<svg width="45" height="45" viewBox="0 0 45 45" fill="none" xmlns="http://www.w3.org/2000/svg">
<path d="M36.5625 32.8125C36.5625 35.4013 34.4638 37.5 31.875 37.5C29.2862 37.5 27.1875 35.4013 27.1875 32.8125C27.1875 30.2237 29.2862 28.125 31.875 28.125C34.4638 28.125 36.5625 30.2237 36.5625 32.8125Z" stroke="#141414" stroke-width="2"/>
<path d="M17.8125 32.8125C17.8125 35.4013 15.7138 37.5 13.125 37.5C10.5362 37.5 8.4375 35.4013 8.4375 32.8125C8.4375 30.2237 10.5362 28.125 13.125 28.125C15.7138 28.125 17.8125 30.2237 17.8125 32.8125Z" stroke="#141414" stroke-width="2"/>
<path d="M27.1875 32.8125H17.8125M36.5625 32.8125H37.9935C38.4058 32.8125 38.6121 32.8125 38.7853 32.7909C40.0629 32.6318 41.0693 31.6254 41.2284 30.3478C41.25 30.1746 41.25 29.9683 41.25 29.556V24.375C41.25 17.644 35.7936 12.1875 29.0625 12.1875M28.125 29.0625V13.125C28.125 10.4734 28.125 9.14753 27.3013 8.32376C26.4774 7.5 25.1516 7.5 22.5 7.5H9.375C6.72336 7.5 5.39753 7.5 4.57376 8.32376C3.75 9.14753 3.75 10.4734 3.75 13.125V28.125C3.75 29.8774 3.75 30.7536 4.1268 31.4062C4.37364 31.8338 4.72869 32.1889 5.15625 32.4356C5.8089 32.8125 6.68509 32.8125 8.4375 32.8125" stroke="#141414" stroke-width="2" stroke-linecap="round" stroke-linejoin="round"/>
</svg>
