<svg width="20" height="21" viewBox="0 0 20 21" fill="none" xmlns="http://www.w3.org/2000/svg">
<g id="Frame">
<path id="Vector" d="M9.99984 18.8333C14.6022 18.8333 18.3332 15.1023 18.3332 10.5C18.3332 5.89758 14.6022 2.16663 9.99984 2.16663C5.39746 2.16663 1.6665 5.89758 1.6665 10.5C1.6665 11.649 1.89906 12.7438 2.31969 13.7397C2.55215 14.29 2.66839 14.5653 2.68278 14.7733C2.69717 14.9813 2.63595 15.21 2.51352 15.6676L1.6665 18.8333L4.83215 17.9863C5.28974 17.8639 5.51854 17.8026 5.72652 17.817C5.93451 17.8314 6.20971 17.9476 6.76013 18.1801C7.75605 18.6007 8.85075 18.8333 9.99984 18.8333Z" stroke="#64666A" stroke-width="1.5" stroke-linejoin="round"/>
<path id="Vector_2" d="M7.15695 10.8145L7.88274 9.91304C8.18863 9.53312 8.56675 9.17946 8.59641 8.67359C8.60383 8.54582 8.514 7.97218 8.33416 6.82492C8.2635 6.37405 7.84255 6.33337 7.47793 6.33337C7.00278 6.33337 6.7652 6.33337 6.52929 6.44113C6.23111 6.57733 5.92499 6.9603 5.8578 7.28115C5.80465 7.53501 5.84415 7.70993 5.92315 8.05978C6.25869 9.54571 7.04584 11.0132 8.2664 12.2338C9.487 13.4544 10.9545 14.2415 12.4404 14.577C12.7902 14.656 12.9652 14.6955 13.2191 14.6424C13.5399 14.5752 13.9228 14.2691 14.0591 13.9709C14.1668 13.735 14.1668 13.4975 14.1668 13.0223C14.1668 12.6576 14.1262 12.2367 13.6752 12.166C12.528 11.9862 11.9544 11.8964 11.8266 11.9038C11.3207 11.9335 10.9671 12.3115 10.5872 12.6175L9.68575 13.3432" stroke="#64666A" stroke-width="1.5"/>
</g>
</svg>
