<svg width="21" height="21" viewBox="0 0 21 21" fill="none" xmlns="http://www.w3.org/2000/svg">
<path fill-rule="evenodd" clip-rule="evenodd" d="M18.77 8.55622C17.8369 4.68564 14.5064 2.04573 10.4809 2C9.95082 2.00864 9.39586 2.05221 8.84703 2.16743C3.23121 3.30448 0.321032 9.52945 3.05871 14.5554C3.1293 14.6901 3.1347 14.7988 3.09581 14.9378C2.73172 16.2628 2.37123 17.5878 2.00858 18.9081C1.96945 19.0531 2.02227 19.1068 2.16704 19.0691C3.54128 18.7087 4.91301 18.3522 6.28617 17.9875C6.39997 17.9569 6.48928 17.9698 6.59336 18.022C8.36194 18.9254 10.2249 19.1908 12.1757 18.8127C16.8368 17.909 19.8827 13.1696 18.7703 8.55622H18.77ZM11.6693 17.4528C11.2858 17.518 10.9005 17.5525 10.6974 17.5486C9.20391 17.5443 7.98596 17.2098 6.86597 16.5321C6.72264 16.445 6.59768 16.4234 6.43022 16.467C5.67755 16.6754 4.91913 16.8623 4.16538 17.0618C4.00693 17.1097 3.9918 17.0747 4.03178 16.9314C4.23165 16.2149 4.41963 15.5024 4.62598 14.7942C4.68324 14.5943 4.66308 14.4424 4.54892 14.2642C3.00001 11.7751 3.0652 8.6736 4.79885 6.37106C6.59984 3.9731 9.04834 2.99159 11.978 3.617C14.8651 4.22513 16.7053 6.08877 17.382 8.9602C18.3065 12.8873 15.6405 16.7925 11.6693 17.4528Z" fill="#FCFCFC"/>
<path fill-rule="evenodd" clip-rule="evenodd" d="M12.704 14.5645C12.4011 14.5774 12.1119 14.508 11.822 14.4298C9.87231 13.8696 8.40912 12.649 7.23367 11.0417C6.78927 10.4379 6.37801 9.81249 6.24116 9.0607C6.07694 8.15696 6.33659 7.39257 7.00895 6.7668C7.22286 6.57129 7.87469 6.48451 8.13542 6.61053C8.2323 6.65842 8.29388 6.74519 8.33421 6.83665C8.58054 7.42317 8.82399 8.0007 9.06527 8.58723C9.11101 8.70029 9.0912 8.80866 9.04042 8.92172C8.91654 9.19104 8.71775 9.40815 8.51572 9.62095C8.36266 9.77757 8.35582 9.92087 8.4689 10.1077C9.15746 11.2545 10.1104 12.0888 11.3564 12.5881C11.5422 12.662 11.6823 12.636 11.8058 12.4798C12.0133 12.2234 12.2326 11.9671 12.4292 11.7021C12.5639 11.5152 12.718 11.4893 12.9082 11.576C13.3198 11.7629 13.7314 11.9584 14.1434 12.1539C14.2356 12.1932 14.3271 12.2411 14.4182 12.2843C14.8352 12.4927 14.8313 12.4971 14.7952 12.9576C14.7257 13.8566 14.0512 14.3002 13.2517 14.5216C13.0756 14.5692 12.8887 14.5738 12.7043 14.5648L12.704 14.5645Z" fill="#FDFDFD"/>
</svg>
